<?xml version="1.0" encoding="UTF-8" standalone="no"?>
<!-- Created with Inkscape (http://www.inkscape.org/) -->

<svg
   width="128"
   height="128"
   viewBox="0 0 12.673267 12.673267"
   version="1.1"
   id="svg1"
   inkscape:version="1.4 (86a8ad7, 2024-10-11)"
   sodipodi:docname="icon.svg"
   inkscape:export-filename="icon.png"
   inkscape:export-xdpi="96"
   inkscape:export-ydpi="96"
   xmlns:inkscape="http://www.inkscape.org/namespaces/inkscape"
   xmlns:sodipodi="http://sodipodi.sourceforge.net/DTD/sodipodi-0.dtd"
   xmlns="http://www.w3.org/2000/svg"
   xmlns:svg="http://www.w3.org/2000/svg">
  <sodipodi:namedview
     id="namedview1"
     pagecolor="#ffffff"
     bordercolor="#000000"
     borderopacity="0.25"
     inkscape:showpageshadow="2"
     inkscape:pageopacity="0.0"
     inkscape:pagecheckerboard="0"
     inkscape:deskcolor="#d1d1d1"
     inkscape:document-units="mm"
     inkscape:zoom="5.6568543"
     inkscape:cx="21.743533"
     inkscape:cy="70.975843"
     inkscape:window-width="2560"
     inkscape:window-height="1377"
     inkscape:window-x="1912"
     inkscape:window-y="-8"
     inkscape:window-maximized="1"
     inkscape:current-layer="layer1" />
  <defs
     id="defs1" />
  <rect
     style="fill:#478cbf;fill-opacity:1;fill-rule:nonzero;stroke:none;stroke-width:0;stroke-linecap:butt;stroke-miterlimit:3.7;paint-order:stroke fill markers"
     id="rect1"
     width="12.702"
     height="12.701034"
     x="-0.00073859555"
     y="-9.3518109e-09"
     ry="1.172677"
     transform="translate(7.3859604e-4)" />
  <g
     inkscape:label="图层 1"
     inkscape:groupmode="layer"
     id="layer1"
     transform="translate(7.3859555e-4)">
    <path
       d="m 9.4387783,8.2239214 q 0,1.4674375 -1.192293,2.2928706 -1.1005782,0.733719 -2.8431602,0.733719 -2.2011562,0 -3.3934492,-0.825433 Q 0.81758291,9.5079292 0.81758291,7.857062 H 2.6518798 q 0,1.1005781 0.7337187,1.4674375 0.8254336,0.3668594 1.9260118,0.3668594 1.1005781,0 1.6508672,-0.3668594 0.550289,-0.4585742 0.550289,-1.1005781 0,-0.4585743 -0.4585742,-0.9171485 Q 6.5956181,6.8481987 4.7613212,6.5730542 2.6518798,6.2979096 1.8264462,5.5641909 1.0927274,4.7387573 1.0927274,3.4547495 q 0,-1.1005782 1.0088633,-1.9260118 1.1005782,-0.9171484 3.1183047,-0.9171484 1.8342969,0 2.8431602,0.8254336 1.1005781,0.8254336 1.1005781,2.2011563 H 7.3293368 q 0,-0.8254336 -0.6420039,-1.1005782 -0.550289,-0.3668594 -1.4674375,-0.3668594 -1.192293,0 -1.742582,0.4585743 -0.4585742,0.3668593 -0.4585742,0.9171484 0,0.6420039 0.4585742,1.0088633 0.4585742,0.3668594 1.9260117,0.5502891 2.384586,0.3668593 3.2100196,1.1922929 0.8254336,0.7337188 0.8254336,1.9260118 z"
       id="text1"
       style="font-size:23.479px;font-family:SimHei;-inkscape-font-specification:'SimHei, Normal';fill:#474cbf;stroke-width:0;stroke-miterlimit:3.7"
       transform="scale(0.91690812,1.0906218)"
       aria-label="s" />
    <path
       d="m 7.7532574,10.840488 q -0.1921816,0.07687 -0.4612359,0.153745 -0.230618,0.03844 -0.6534176,0.03844 -0.6918539,0 -1.1146535,-0.384363 Q 5.1011508,10.263943 5.1011508,9.5720894 V 7.2659097 H 3.7943157 V 6.6509285 H 5.1011508 V 5.1519118 H 5.8698774 V 6.6509285 H 7.4457668 V 7.2659097 H 5.8698774 v 2.344616 q 0,0.3074906 0.1537453,0.5381083 0.1537453,0.192182 0.5765449,0.192182 0.4227996,0 0.6918539,-0.07687 0.2690543,-0.07687 0.4612359,-0.192181 z m 5.3810856,0.115309 H 12.365617 V 7.8424546 q 0,-0.2306179 -0.07687,-0.3843632 -0.07687,-0.1537453 -0.307491,-0.1537453 -0.269054,0 -0.499672,0.3074906 -0.230618,0.2690543 -0.230618,0.7302902 V 10.955797 H 10.482237 V 7.8424546 q 0,-0.2306179 -0.07687,-0.3843632 -0.07687,-0.1537453 -0.307491,-0.1537453 -0.2690539,0 -0.4996719,0.3074906 -0.230618,0.2690543 -0.230618,0.7302902 V 10.955797 H 8.5988566 V 6.6509285 H 9.3675831 V 7.2274734 Q 9.5597648,6.9199828 9.8288191,6.7662375 10.097873,6.5740559 10.405364,6.5740559 q 0.307491,0 0.499672,0.1921816 0.230618,0.1537453 0.307491,0.4612359 0.192181,-0.3074906 0.422799,-0.4612359 0.269055,-0.1921816 0.576545,-0.1921816 0.461236,0 0.691854,0.2690542 0.230618,0.230618 0.230618,0.6918539 z"
       id="text2"
       style="font-size:9.8397px;font-family:SimHei;-inkscape-font-specification:'SimHei, Normal';fill:#479cbf;stroke:#ffffff;stroke-width:0.529167;stroke-linejoin:round;stroke-miterlimit:3.7;paint-order:stroke markers fill"
       transform="scale(0.90080182,1.1101221)"
       aria-label="tm" />
  </g>
</svg>
